<?xml version="1.0" encoding="UTF-8"?>
<svg width="35px" height="35px" viewBox="0 0 35 35" version="1.1" xmlns="http://www.w3.org/2000/svg" xmlns:xlink="http://www.w3.org/1999/xlink">
    <!-- Generator: Sketch 48.2 (47327) - http://www.bohemiancoding.com/sketch -->
    <title>Measure-Icon</title>
    <desc>Created with Sketch.</desc>
    <defs></defs>
    <g id="landing" stroke="none" stroke-width="1" fill="none" fill-rule="evenodd" transform="translate(-784.000000, -669.000000)">
        <g id="Main-Buttons" transform="translate(275.000000, 502.000000)" fill="#1E8CEB" fill-rule="nonzero">
            <g id="Review" transform="translate(463.000000, 0.000000)">
                <g id="Visual-1" transform="translate(28.000000, 150.000000)">
                    <g id="Measure-Icon" transform="translate(18.000000, 17.000000)">
                        <path d="M34.453125,32.8125 L2.734375,32.8125 C2.43236328,32.8125 2.1875,32.5676367 2.1875,32.265625 L2.1875,0.546875 C2.1875,0.244863281 2.43236328,0 2.734375,0 C3.03638672,0 3.28125,0.244863281 3.28125,0.546875 L3.28125,31.71875 L34.453125,31.71875 C34.7551367,31.71875 35,31.9636133 35,32.265625 C35,32.5676367 34.7551367,32.8125 34.453125,32.8125 Z" id="Shape"></path>
                        <path d="M32.265625,35 C32.1257016,35 31.9857781,34.9465922 31.878968,34.839782 C31.6653422,34.6261562 31.6653422,34.2800883 31.878968,34.066468 L33.6798109,32.265625 L31.878968,30.464782 C31.6653422,30.2511562 31.6653422,29.9050883 31.878968,29.691468 C32.0925938,29.4778477 32.4386617,29.4778422 32.652282,29.691468 L34.839782,31.878968 C35.0534078,32.0925937 35.0534078,32.4386617 34.839782,32.652282 L32.652282,34.839782 C32.5454719,34.9465922 32.4055484,35 32.265625,35 Z" id="Shape"></path>
                        <path d="M4.921875,3.28125 C4.78195156,3.28125 4.64202812,3.22784219 4.53521797,3.12103203 L2.734375,1.32018906 L0.933532031,3.12103203 C0.71990625,3.33465781 0.373838281,3.33465781 0.160217969,3.12103203 C-0.0534023438,2.90740625 -0.0534078125,2.56133828 0.160217969,2.34771797 L2.34771797,0.160217969 C2.56134375,-0.0534078125 2.90741172,-0.0534078125 3.12103203,0.160217969 L5.30853203,2.34771797 C5.52215781,2.56134375 5.52215781,2.90741172 5.30853203,3.12103203 C5.20172187,3.22784219 5.06179844,3.28125 4.921875,3.28125 Z" id="Shape"></path>
                        <path d="M2.73383906,32.8125 C2.6518625,32.8125 2.56828359,32.7940758 2.48977422,32.7548211 C2.21954141,32.6197047 2.11005703,32.291257 2.24517344,32.0210242 L8.80767344,18.8960242 C8.88885156,18.7339359 9.04506094,18.6223188 9.224775,18.5985516 C9.40422109,18.5747844 9.58446016,18.6410109 9.70489297,18.7766578 L11.4448523,20.7273008 L16.2681914,11.9054688 C16.3571133,11.7431125 16.5224008,11.6365703 16.7069219,11.6226852 C16.8951781,11.609068 17.0711516,11.6894422 17.1832992,11.8368414 L19.1796062,14.4606656 L24.7530391,8.38043281 C24.9573187,8.15799688 25.3033867,8.14277734 25.5258227,8.34678906 C25.7485266,8.55106875 25.7634781,8.89686875 25.5594664,9.11957266 L19.5438414,15.6820727 C19.434357,15.8011656 19.2821508,15.8649859 19.1155289,15.8588445 C18.9537086,15.8513688 18.8036406,15.7725969 18.7053727,15.6436219 L16.8233516,13.1701336 L12.0325898,21.9324164 C11.9474086,22.0883633 11.7914617,22.1930352 11.6149578,22.2133297 C11.4384539,22.236025 11.2632789,22.1665992 11.1447219,22.0338836 L9.425325,20.1064719 L3.22357109,32.5102258 C3.12770937,32.7019492 2.93464609,32.8125 2.73383906,32.8125 Z" id="Shape"></path>
                        <path d="M2.734375,32.8125 C2.60112891,32.8125 2.46761484,32.7641672 2.36213906,32.6664352 C2.1410375,32.4608211 2.12822422,32.1147531 2.33356484,31.8933891 L9.44293984,24.2371391 C9.54787969,24.1244555 9.70623281,24.0544937 9.84935547,24.0625 C10.0031641,24.0641023 10.1494969,24.1303234 10.251768,24.2454133 L11.9917273,26.1960562 L16.8150664,17.3742242 C16.8989133,17.2206836 17.0513875,17.1168102 17.2249547,17.0943773 C17.4001242,17.0722125 17.572357,17.1339 17.6925219,17.2612727 L20.7601516,20.5094094 L32.9430719,6.20787891 C33.1385359,5.97716328 33.4843414,5.95073281 33.7139852,6.14619687 C33.9438969,6.34192891 33.9713992,6.68719844 33.7756672,6.91711016 L21.1975422,21.6827352 C21.0968734,21.8010297 20.9505406,21.8707234 20.7951297,21.8747266 C20.6450617,21.8883437 20.4901812,21.8162492 20.3836391,21.7035602 L17.4137469,18.5590289 L12.5794594,27.4011555 C12.4942781,27.5571023 12.3383312,27.6617742 12.1618273,27.6820687 C11.9853234,27.7042336 11.8101484,27.6353383 11.6915914,27.5026227 L9.83547578,25.4219328 L3.13518516,32.6378609 C3.02730312,32.7537547 2.88097578,32.8125 2.734375,32.8125 Z" id="Shape"></path>
                        <path d="M33.359375,10.390625 C33.0573633,10.390625 32.8125,10.1457617 32.8125,9.84375 L32.8125,7.109375 L30.078125,7.109375 C29.7761133,7.109375 29.53125,6.86451172 29.53125,6.5625 C29.53125,6.26048828 29.7761133,6.015625 30.078125,6.015625 L33.359375,6.015625 C33.6613867,6.015625 33.90625,6.26048828 33.90625,6.5625 L33.90625,9.84375 C33.90625,10.1457617 33.6613867,10.390625 33.359375,10.390625 Z" id="Shape"></path>
                        <path d="M25.15625,12.578125 C24.8542383,12.578125 24.609375,12.3332617 24.609375,12.03125 L24.609375,9.296875 L21.875,9.296875 C21.5729883,9.296875 21.328125,9.05201172 21.328125,8.75 C21.328125,8.44798828 21.5729883,8.203125 21.875,8.203125 L25.15625,8.203125 C25.4582617,8.203125 25.703125,8.44798828 25.703125,8.75 L25.703125,12.03125 C25.703125,12.3332617 25.4582617,12.578125 25.15625,12.578125 Z" id="Shape"></path>
                        <path d="M2.73410703,32.8125 C2.49164453,32.812768 2.27028047,32.6504117 2.20565625,32.4050125 C2.12848672,32.1128828 2.30312031,31.8138133 2.59498203,31.7369063 L16.1157172,28.1763453 L19.8367641,24.2339344 C20.028225,24.0304586 20.34305,24.0042906 20.5660219,24.1746531 L25.2716023,27.7635203 L27.9507047,16.282082 C27.9958328,16.0882203 28.1426961,15.9341438 28.334157,15.8799375 C28.5261484,15.8265297 28.7317625,15.8802055 28.8716859,16.0214633 L33.7478969,20.9433383 C33.9604508,21.1577625 33.9588484,21.5040984 33.7441563,21.7166523 C33.53,21.9289383 33.1841945,21.9284078 32.9708422,21.7129117 L28.7910383,17.4938586 L26.1445133,28.8351055 C26.1025898,29.0158859 25.9714766,29.1627492 25.7971109,29.2255031 C25.6216734,29.2879891 25.4278117,29.2583484 25.2804125,29.1456594 L20.2941813,25.3426359 L16.80385,29.0407195 C16.7338883,29.1149523 16.644168,29.1680922 16.545632,29.1939922 L2.87375703,32.7943438 C2.82703203,32.8068945 2.78003906,32.8125 2.73410703,32.8125 Z" id="Shape"></path>
                        <path d="M33.359375,21.875 L30.078125,21.875 C29.7761133,21.875 29.53125,21.6301367 29.53125,21.328125 C29.53125,21.0261133 29.7761133,20.78125 30.078125,20.78125 L32.8125,20.78125 L32.8125,18.046875 C32.8125,17.7448633 33.0573633,17.5 33.359375,17.5 C33.6613867,17.5 33.90625,17.7448633 33.90625,18.046875 L33.90625,21.328125 C33.90625,21.6301367 33.6613867,21.875 33.359375,21.875 Z" id="Shape"></path>
                        <path d="M4.921875,18.046875 C4.77420781,18.046875 4.63748906,17.9865273 4.53361562,17.8882594 C4.43507969,17.7843859 4.375,17.6476672 4.375,17.5 C4.375,17.3576758 4.43507969,17.2156141 4.53361562,17.1117406 C4.73575703,16.9093313 5.10211953,16.9093313 5.31013437,17.1117406 C5.40840234,17.2156141 5.46875,17.3576758 5.46875,17.5 C5.46875,17.6420617 5.40840234,17.7843859 5.31013438,17.8882594 C5.20626094,17.9865273 5.06393672,18.046875 4.921875,18.046875 Z" id="Shape"></path>
                        <path d="M7.109375,18.046875 C6.96705078,18.046875 6.82498906,17.9865273 6.72111562,17.8882594 C6.62257969,17.7843859 6.5625,17.6476672 6.5625,17.5 C6.5625,17.3576758 6.62257969,17.2156141 6.72111562,17.1117406 C6.92325703,16.9093313 7.28961953,16.9093313 7.49763437,17.1117406 C7.59590234,17.2156141 7.65625,17.3576758 7.65625,17.5 C7.65625,17.6420617 7.59590234,17.7843859 7.49763438,17.8882594 C7.39376094,17.9865273 7.25143672,18.046875 7.109375,18.046875 Z" id="Shape"></path>
                        <path d="M4.921875,20.234375 C4.77955078,20.234375 4.63748906,20.1740273 4.53361562,20.0757594 C4.43507969,19.9718859 4.375,19.8295617 4.375,19.6875 C4.375,19.5451758 4.43507969,19.4031141 4.53361562,19.2992406 C4.73575703,19.0968313 5.10211953,19.0968313 5.31013437,19.2992406 C5.40840234,19.4031141 5.46875,19.5451758 5.46875,19.6875 C5.46875,19.8295617 5.40840234,19.9718859 5.31013438,20.0757594 C5.20626094,20.1740273 5.06393672,20.234375 4.921875,20.234375 Z" id="Shape"></path>
                        <path d="M4.921875,15.859375 C4.77420781,15.859375 4.63748906,15.7990273 4.53361562,15.7007594 C4.43507969,15.5968859 4.375,15.4601672 4.375,15.3125 C4.375,15.1648328 4.43507969,15.0281141 4.53361562,14.9242406 C4.73575703,14.7218313 5.10211953,14.7218313 5.31013437,14.9242406 C5.40840234,15.0281141 5.46875,15.1701758 5.46875,15.3125 C5.46875,15.4545617 5.40840234,15.5968859 5.31013438,15.7007594 C5.20626094,15.7990273 5.06393672,15.859375 4.921875,15.859375 Z" id="Shape"></path>
                        <path d="M7.109375,15.859375 C6.96705078,15.859375 6.82498906,15.7990273 6.72111562,15.7007594 C6.62257969,15.5968859 6.5625,15.4545617 6.5625,15.3125 C6.5625,15.1648328 6.62257969,15.0281141 6.72111562,14.9242406 C6.92325703,14.7218313 7.28961953,14.7218313 7.49763437,14.9242406 C7.59590234,15.0281141 7.65625,15.1701758 7.65625,15.3125 C7.65625,15.4545617 7.59590234,15.5968859 7.49763438,15.7007594 C7.39376094,15.7990273 7.25143672,15.859375 7.109375,15.859375 Z" id="Shape"></path>
                        <path d="M4.921875,13.671875 C4.77955078,13.671875 4.63748906,13.6115273 4.53361562,13.5132594 C4.43507969,13.4093859 4.375,13.2726672 4.375,13.125 C4.375,12.9773328 4.43507969,12.8406141 4.53361562,12.7367406 C4.73575703,12.5343313 5.10211953,12.5343313 5.31013437,12.7367406 C5.40840234,12.8406141 5.46875,12.9826758 5.46875,13.125 C5.46875,13.2670617 5.40840234,13.4093859 5.31013438,13.5132594 C5.20626094,13.6115273 5.06393672,13.671875 4.921875,13.671875 Z" id="Shape"></path>
                        <path d="M7.109375,13.671875 C6.96705078,13.671875 6.82498906,13.6115273 6.72111562,13.5132594 C6.62257969,13.4093859 6.5625,13.2670617 6.5625,13.125 C6.5625,12.9773328 6.62257969,12.8406141 6.72111562,12.7367406 C6.92325703,12.5343313 7.28961953,12.5343313 7.49763437,12.7367406 C7.59590234,12.8406141 7.65625,12.9826758 7.65625,13.125 C7.65625,13.2670617 7.59590234,13.4093859 7.49763438,13.5132594 C7.39376094,13.6115273 7.25143672,13.671875 7.109375,13.671875 Z" id="Shape"></path>
                        <path d="M4.921875,11.484375 C4.77955078,11.484375 4.63748906,11.4240273 4.53361562,11.3257594 C4.43507969,11.2218859 4.375,11.0795617 4.375,10.9375 C4.375,10.7951758 4.43507969,10.6531141 4.53361562,10.5492406 C4.73575703,10.3468313 5.10211953,10.3468313 5.31013437,10.5492406 C5.40840234,10.6531141 5.46875,10.7951758 5.46875,10.9375 C5.46875,11.0795617 5.40840234,11.2218859 5.31013438,11.3257594 C5.20626094,11.4240273 5.06393672,11.484375 4.921875,11.484375 Z" id="Shape"></path>
                        <path d="M7.109375,11.484375 C6.96170781,11.484375 6.82498906,11.4240273 6.72111562,11.3257594 C6.62257969,11.2218859 6.5625,11.0851672 6.5625,10.9375 C6.5625,10.7951758 6.62257969,10.6531141 6.72111562,10.5492406 C6.92325703,10.3468313 7.28961953,10.3468313 7.49763437,10.5492406 C7.59590234,10.6531141 7.65625,10.7951758 7.65625,10.9375 C7.65625,11.0795617 7.59590234,11.2218859 7.49763438,11.3257594 C7.39376094,11.4240273 7.25143672,11.484375 7.109375,11.484375 Z" id="Shape"></path>
                        <path d="M4.921875,9.296875 C4.77955078,9.296875 4.63748906,9.23652734 4.53361562,9.13825938 C4.43507969,9.03438594 4.375,8.89206172 4.375,8.75 C4.375,8.60767578 4.43507969,8.46561406 4.53361562,8.36174063 C4.73575703,8.15933125 5.10211953,8.15933125 5.31013437,8.36174063 C5.40840234,8.46561406 5.46875,8.60767578 5.46875,8.75 C5.46875,8.89206172 5.40840234,9.03438594 5.31013438,9.13825938 C5.20626094,9.23652734 5.06393672,9.296875 4.921875,9.296875 Z" id="Shape"></path>
                        <path d="M7.109375,9.296875 C6.96705078,9.296875 6.82498906,9.23652734 6.72111562,9.13825938 C6.62257969,9.03438594 6.5625,8.89766719 6.5625,8.75 C6.5625,8.60233281 6.62257969,8.46561406 6.72111562,8.36174063 C6.92325703,8.16467422 7.28961953,8.15933125 7.49763437,8.36174063 C7.59590234,8.46561406 7.65625,8.60767578 7.65625,8.75 C7.65625,8.89206172 7.59590234,9.03438594 7.49763438,9.13825938 C7.39376094,9.23652734 7.25143672,9.296875 7.109375,9.296875 Z" id="Shape"></path>
                        <path d="M4.921875,7.109375 C4.77420781,7.109375 4.63748906,7.04902734 4.53361562,6.95075938 C4.43507969,6.84688594 4.375,6.71016719 4.375,6.5625 C4.375,6.42017578 4.43507969,6.27811406 4.53361562,6.17424063 C4.73575703,5.97183125 5.10211953,5.97183125 5.31013437,6.17424063 C5.40840234,6.27811406 5.46875,6.42017578 5.46875,6.5625 C5.46875,6.70456172 5.40840234,6.84688594 5.31013438,6.95075938 C5.20626094,7.04902734 5.06393672,7.109375 4.921875,7.109375 Z" id="Shape"></path>
                        <path d="M7.109375,7.109375 C6.96705078,7.109375 6.82498906,7.04902734 6.72111562,6.95075938 C6.62257969,6.84688594 6.5625,6.70456172 6.5625,6.5625 C6.5625,6.41483281 6.62257969,6.27811406 6.72111562,6.17424063 C6.92325703,5.97183125 7.28961953,5.97183125 7.49763437,6.17424063 C7.59590234,6.27811406 7.65625,6.42017578 7.65625,6.5625 C7.65625,6.70456172 7.59590234,6.84688594 7.49763438,6.95075938 C7.39376094,7.04902734 7.25143672,7.109375 7.109375,7.109375 Z" id="Shape"></path>
                        <path d="M9.296875,15.859375 C9.14920781,15.859375 9.01248906,15.7990273 8.90861563,15.7007594 C8.81007969,15.5968859 8.75,15.4545617 8.75,15.3125 C8.75,15.1701758 8.81007969,15.0281141 8.90861563,14.9242406 C9.1163625,14.7218313 9.47711953,14.7218313 9.68513438,14.9242406 C9.78340234,15.0281141 9.84375,15.1701758 9.84375,15.3125 C9.84375,15.4545617 9.78340234,15.5968859 9.68513437,15.7007594 C9.58126094,15.7990273 9.43893672,15.859375 9.296875,15.859375 Z" id="Shape"></path>
                        <path d="M9.296875,13.671875 C9.15455078,13.671875 9.01248906,13.6115273 8.90861563,13.5132594 C8.81007969,13.4093859 8.75,13.2670617 8.75,13.125 C8.75,12.9826758 8.81007969,12.8406141 8.90861563,12.7367406 C9.11075703,12.5343313 9.47711953,12.5343313 9.68513438,12.7367406 C9.78340234,12.8406141 9.84375,12.9826758 9.84375,13.125 C9.84375,13.2670617 9.78340234,13.4093859 9.68513437,13.5132594 C9.58126094,13.6115273 9.43893672,13.671875 9.296875,13.671875 Z" id="Shape"></path>
                        <path d="M9.296875,11.484375 C9.15455078,11.484375 9.01248906,11.4240273 8.90861563,11.3257594 C8.81007969,11.2218859 8.75,11.0795617 8.75,10.9375 C8.75,10.7951758 8.81007969,10.6531141 8.90861563,10.5492406 C9.11075703,10.3468313 9.47711953,10.3468313 9.68513438,10.5492406 C9.78340234,10.6531141 9.84375,10.7951758 9.84375,10.9375 C9.84375,11.0795617 9.78340234,11.2218859 9.68513437,11.3257594 C9.58126094,11.4240273 9.43893672,11.484375 9.296875,11.484375 Z" id="Shape"></path>
                        <path d="M9.296875,9.296875 C9.14920781,9.296875 9.01248906,9.23652734 8.90861563,9.13825938 C8.81007969,9.03438594 8.75,8.89206172 8.75,8.75 C8.75,8.60767578 8.81007969,8.46561406 8.90861563,8.36174063 C9.11075703,8.15933125 9.47711953,8.15933125 9.68513438,8.36174063 C9.78340234,8.46561406 9.84375,8.60767578 9.84375,8.75 C9.84375,8.89206172 9.78340234,9.03438594 9.68513437,9.13825938 C9.58126094,9.23652734 9.43893672,9.296875 9.296875,9.296875 Z" id="Shape"></path>
                        <path d="M9.296875,7.109375 C9.15455078,7.109375 9.01248906,7.04902734 8.90861563,6.95075938 C8.81007969,6.84688594 8.75,6.70456172 8.75,6.5625 C8.75,6.42017578 8.81007969,6.27811406 8.90861563,6.17424063 C9.11075703,5.97183125 9.47711953,5.97183125 9.68513438,6.17424063 C9.78340234,6.27811406 9.84375,6.42017578 9.84375,6.5625 C9.84375,6.70456172 9.78340234,6.84688594 9.68513437,6.95075938 C9.58126094,7.04902734 9.43893672,7.109375 9.296875,7.109375 Z" id="Shape"></path>
                        <path d="M11.484375,15.859375 C11.3420508,15.859375 11.1999891,15.7990273 11.0961156,15.7007594 C10.9975797,15.5968859 10.9375,15.4545617 10.9375,15.3125 C10.9375,15.1701758 10.9975797,15.0281141 11.0961156,14.9242406 C11.3038625,14.7218313 11.6646195,14.7218313 11.8726344,14.9242406 C11.9709023,15.0281141 12.03125,15.1701758 12.03125,15.3125 C12.03125,15.4545617 11.9709023,15.5968859 11.8726344,15.7007594 C11.7687609,15.7990273 11.6264367,15.859375 11.484375,15.859375 Z" id="Shape"></path>
                        <path d="M11.484375,13.671875 C11.3420508,13.671875 11.1999891,13.6115273 11.0961156,13.5132594 C10.9975797,13.4093859 10.9375,13.2670617 10.9375,13.125 C10.9375,12.9826758 10.9975797,12.8406141 11.0961156,12.7367406 C11.3038625,12.5343313 11.6646195,12.5343313 11.8726344,12.7367406 C11.9709023,12.8406141 12.03125,12.9826758 12.03125,13.125 C12.03125,13.2670617 11.9709023,13.4093859 11.8726344,13.5132594 C11.7687609,13.6115273 11.6264367,13.671875 11.484375,13.671875 Z" id="Shape"></path>
                        <path d="M11.484375,11.484375 C11.3420508,11.484375 11.1999891,11.4240273 11.0961156,11.3257594 C10.9975797,11.2218859 10.9375,11.0795617 10.9375,10.9375 C10.9375,10.7951758 10.9975797,10.6531141 11.0961156,10.5492406 C11.3038625,10.3468313 11.6646195,10.3468313 11.8726344,10.5492406 C11.9709023,10.6531141 12.03125,10.7951758 12.03125,10.9375 C12.03125,11.0795617 11.9709023,11.2218859 11.8726344,11.3257594 C11.7687609,11.4240273 11.6264367,11.484375 11.484375,11.484375 Z" id="Shape"></path>
                        <path d="M11.484375,9.296875 C11.3420508,9.296875 11.1999891,9.23652734 11.0961156,9.13825938 C10.9975797,9.03438594 10.9375,8.89206172 10.9375,8.75 C10.9375,8.60767578 10.9975797,8.46561406 11.0961156,8.36174063 C11.3038625,8.15933125 11.6646195,8.15933125 11.8726344,8.36174063 C11.9709023,8.46561406 12.03125,8.60767578 12.03125,8.75 C12.03125,8.89206172 11.9709023,9.03438594 11.8726344,9.13825938 C11.7687609,9.23652734 11.6264367,9.296875 11.484375,9.296875 Z" id="Shape"></path>
                        <path d="M11.484375,7.109375 C11.3420508,7.109375 11.1999891,7.04902734 11.0961156,6.95075938 C10.9975797,6.84688594 10.9375,6.70456172 10.9375,6.5625 C10.9375,6.42017578 10.9975797,6.27811406 11.0961156,6.17424063 C11.298257,5.97183125 11.6646195,5.97183125 11.8726344,6.17424063 C11.9709023,6.27811406 12.03125,6.42017578 12.03125,6.5625 C12.03125,6.70456172 11.9709023,6.84688594 11.8726344,6.95075938 C11.7687609,7.04902734 11.6264367,7.109375 11.484375,7.109375 Z" id="Shape"></path>
                        <path d="M13.671875,13.671875 C13.5295508,13.671875 13.3874891,13.6115273 13.2836156,13.5132594 C13.1850797,13.4093859 13.125,13.2670617 13.125,13.125 C13.125,12.9826758 13.1850797,12.8406141 13.2836156,12.7367406 C13.485757,12.5343313 13.857725,12.5343313 14.0601344,12.7367406 C14.1584023,12.8406141 14.21875,12.9826758 14.21875,13.125 C14.21875,13.2670617 14.1584023,13.4093859 14.0601344,13.5132594 C13.9562609,13.6115273 13.8139367,13.671875 13.671875,13.671875 Z" id="Shape"></path>
                        <path d="M13.671875,11.484375 C13.5242078,11.484375 13.3874891,11.4240273 13.2836156,11.3257594 C13.1850797,11.2218859 13.125,11.0795617 13.125,10.9375 C13.125,10.7951758 13.1850797,10.6531141 13.2836156,10.5492406 C13.485757,10.3468313 13.8521195,10.3468313 14.0601344,10.5492406 C14.1584023,10.6531141 14.21875,10.7951758 14.21875,10.9375 C14.21875,11.0795617 14.1584023,11.2218859 14.0601344,11.3257594 C13.9562609,11.4240273 13.8195422,11.484375 13.671875,11.484375 Z" id="Shape"></path>
                        <path d="M13.671875,9.296875 C13.5295508,9.296875 13.3874891,9.23652734 13.2836156,9.13825938 C13.1850797,9.03438594 13.125,8.89206172 13.125,8.75 C13.125,8.60767578 13.1850797,8.46561406 13.2836156,8.36174063 C13.485757,8.15933125 13.857725,8.15933125 14.0601344,8.36174063 C14.1584023,8.46561406 14.21875,8.60767578 14.21875,8.75 C14.21875,8.89206172 14.1584023,9.03438594 14.0601344,9.13825938 C13.9562609,9.23652734 13.8139367,9.296875 13.671875,9.296875 Z" id="Shape"></path>
                        <path d="M13.671875,7.109375 C13.5295508,7.109375 13.3874891,7.04902734 13.2836156,6.95075938 C13.1850797,6.84688594 13.125,6.70456172 13.125,6.5625 C13.125,6.42017578 13.1850797,6.27811406 13.2836156,6.17424063 C13.485757,5.97183125 13.8521195,5.97183125 14.0601344,6.17424063 C14.1584023,6.27811406 14.21875,6.42017578 14.21875,6.5625 C14.21875,6.70456172 14.1584023,6.84688594 14.0601344,6.95075938 C13.9562609,7.04902734 13.8139367,7.109375 13.671875,7.109375 Z" id="Shape"></path>
                        <path d="M15.859375,9.296875 C15.7170508,9.296875 15.5749891,9.23652734 15.4711156,9.13825938 C15.3725797,9.03438594 15.3125,8.89206172 15.3125,8.75 C15.3125,8.60767578 15.3725797,8.46561406 15.4711156,8.36174063 C15.6788625,8.15933125 16.045225,8.15933125 16.2476344,8.36174063 C16.3459023,8.46561406 16.40625,8.60767578 16.40625,8.75 C16.40625,8.89206172 16.3459023,9.03438594 16.2476344,9.13825938 C16.1437609,9.23652734 16.0014367,9.296875 15.859375,9.296875 Z" id="Shape"></path>
                        <path d="M15.859375,7.109375 C15.7170508,7.109375 15.5749891,7.04902734 15.4711156,6.95075938 C15.3725797,6.84688594 15.3125,6.70456172 15.3125,6.5625 C15.3125,6.42017578 15.3725797,6.27811406 15.4711156,6.17424063 C15.6788625,5.97183125 16.045225,5.97183125 16.2476344,6.17424063 C16.3459023,6.27811406 16.40625,6.42017578 16.40625,6.5625 C16.40625,6.70456172 16.3459023,6.84688594 16.2476344,6.95075938 C16.1437609,7.04902734 16.0014367,7.109375 15.859375,7.109375 Z" id="Shape"></path>
                        <path d="M18.046875,9.296875 C17.9045508,9.296875 17.7624891,9.23652734 17.6586156,9.13825938 C17.5600797,9.03438594 17.5,8.89206172 17.5,8.75 C17.5,8.60767578 17.5600797,8.46561406 17.6586156,8.36174063 C17.8663625,8.15933125 18.232725,8.15933125 18.4351344,8.36174063 C18.5334023,8.46561406 18.59375,8.60767578 18.59375,8.75 C18.59375,8.89206172 18.5334023,9.03438594 18.4351344,9.13825938 C18.3312609,9.23652734 18.1889367,9.296875 18.046875,9.296875 Z" id="Shape"></path>
                        <path d="M18.046875,7.109375 C17.9045508,7.109375 17.7624891,7.04902734 17.6586156,6.95075938 C17.5600797,6.84688594 17.5,6.70456172 17.5,6.5625 C17.5,6.42017578 17.5600797,6.27811406 17.6586156,6.17424063 C17.860757,5.97183125 18.232725,5.97183125 18.4351344,6.17424063 C18.5334023,6.27811406 18.59375,6.42017578 18.59375,6.5625 C18.59375,6.70456172 18.5334023,6.84688594 18.4351344,6.95075938 C18.3312609,7.04902734 18.1945422,7.109375 18.046875,7.109375 Z" id="Shape"></path>
                    </g>
                </g>
            </g>
        </g>
    </g>
</svg>