<?xml version="1.0" encoding="UTF-8"?>
<svg width="35px" height="33px" viewBox="0 0 35 33" version="1.1" xmlns="http://www.w3.org/2000/svg" xmlns:xlink="http://www.w3.org/1999/xlink">
    <!-- Generator: Sketch 48.2 (47327) - http://www.bohemiancoding.com/sketch -->
    <title>Generate-Icon</title>
    <desc>Created with Sketch.</desc>
    <defs></defs>
    <g id="landing" stroke="none" stroke-width="1" fill="none" fill-rule="evenodd" transform="translate(-320.000000, -669.000000)">
        <g id="Main-Buttons" transform="translate(275.000000, 502.000000)" fill="#1E8CEB" fill-rule="nonzero">
            <g id="Generate">
                <g id="Visual-1" transform="translate(27.000000, 150.000000)">
                    <g id="Generate-Icon" transform="translate(18.000000, 17.000000)">
                        <path d="M33.90625,17.0322581 L1.09375,17.0322581 C0.490798437,17.0322581 0,16.5548385 0,15.9677419 L0,1.06451613 C0,0.477419516 0.490798438,0 1.09375,0 L33.90625,0 C34.5092016,0 35,0.477419516 35,1.06451613 L35,15.9677419 C35,16.5548385 34.5092016,17.0322581 33.90625,17.0322581 Z M1.09375,1.06451613 L1.09375,15.9677419 L33.9067859,15.9677419 L33.90625,1.06451613 L1.09375,1.06451613 Z" id="Shape"></path>
                        <path d="M31.171875,14.9032258 L3.828125,14.9032258 C3.52585078,14.9032258 3.28125,14.6649073 3.28125,14.3709677 C3.28125,14.0775498 3.03611875,13.8387097 2.734375,13.8387097 C2.43210078,13.8387097 2.1875,13.6003911 2.1875,13.3064516 L2.1875,3.72580645 C2.1875,3.43186694 2.43210078,3.19354839 2.734375,3.19354839 C3.03611875,3.19354839 3.28125,2.95470823 3.28125,2.66129032 C3.28125,2.36735081 3.52585078,2.12903226 3.828125,2.12903226 L31.171875,2.12903226 C31.4741492,2.12903226 31.71875,2.36735081 31.71875,2.66129032 C31.71875,2.95470823 31.9638813,3.19354839 32.265625,3.19354839 C32.5678992,3.19354839 32.8125,3.43186694 32.8125,3.72580645 L32.8125,13.3064516 C32.8125,13.6003911 32.5678992,13.8387097 32.265625,13.8387097 C31.9638813,13.8387097 31.71875,14.0775498 31.71875,14.3709677 C31.71875,14.6649073 31.4741492,14.9032258 31.171875,14.9032258 Z M4.28153906,13.8387097 L30.7184609,13.8387097 C30.8834859,13.3857208 31.2530531,13.0260261 31.71875,12.8654173 L31.71875,4.16684081 C31.2530531,4.00623194 30.8834859,3.64653726 30.7184609,3.19354839 L4.28153906,3.19354839 C4.11651406,3.64653726 3.74694687,4.00623194 3.28125,4.16684081 L3.28125,12.8654119 C3.74694687,13.0260261 4.11651406,13.3857208 4.28153906,13.8387097 Z" id="Shape"></path>
                        <path d="M17.5,12.7741935 C15.3894016,12.7741935 13.671875,10.8639885 13.671875,8.51612903 C13.671875,6.16826952 15.389407,4.25806452 17.5,4.25806452 C19.610593,4.25806452 21.328125,6.16826952 21.328125,8.51612903 C21.328125,10.8639885 19.6105984,12.7741935 17.5,12.7741935 Z M17.5,5.32258065 C15.9923531,5.32258065 14.765625,6.75510532 14.765625,8.51612903 C14.765625,10.2771527 15.9923531,11.7096774 17.5,11.7096774 C19.0076469,11.7096774 20.234375,10.2771527 20.234375,8.51612903 C20.234375,6.75510532 19.0076469,5.32258065 17.5,5.32258065 Z" id="Shape"></path>
                        <path d="M7.65625,10.1129032 C6.75155469,10.1129032 6.015625,9.39664355 6.015625,8.51612903 C6.015625,7.63561452 6.75155469,6.91935484 7.65625,6.91935484 C8.56094531,6.91935484 9.296875,7.63561452 9.296875,8.51612903 C9.296875,9.39664355 8.56094531,10.1129032 7.65625,10.1129032 Z M7.65625,7.98387097 C7.35450625,7.98387097 7.109375,8.22271113 7.109375,8.51612903 C7.109375,8.80954694 7.35450625,9.0483871 7.65625,9.0483871 C7.95799375,9.0483871 8.203125,8.80954694 8.203125,8.51612903 C8.203125,8.22271113 7.95799375,7.98387097 7.65625,7.98387097 Z" id="Shape"></path>
                        <path d="M27.34375,10.1129032 C26.4390547,10.1129032 25.703125,9.39664355 25.703125,8.51612903 C25.703125,7.63561452 26.4390547,6.91935484 27.34375,6.91935484 C28.2484453,6.91935484 28.984375,7.63561452 28.984375,8.51612903 C28.984375,9.39664355 28.2484453,10.1129032 27.34375,10.1129032 Z M27.34375,7.98387097 C27.0420063,7.98387097 26.796875,8.22271113 26.796875,8.51612903 C26.796875,8.80954694 27.0420063,9.0483871 27.34375,9.0483871 C27.6454937,9.0483871 27.890625,8.80954694 27.890625,8.51612903 C27.890625,8.22271113 27.6454937,7.98387097 27.34375,7.98387097 Z" id="Shape"></path>
                        <path d="M11.484375,9.0483871 C11.3423133,9.0483871 11.1997211,8.98965242 11.0961156,8.89401097 C10.9973172,8.79291387 10.9375,8.65439371 10.9375,8.51612903 C10.9375,8.37760887 10.9973172,8.23934419 11.0961156,8.1382471 C11.298525,7.94124774 11.670225,7.94124774 11.8726344,8.1382471 C11.9709023,8.23934419 12.03125,8.37760887 12.03125,8.51612903 C12.03125,8.65439371 11.9709023,8.79291387 11.8726344,8.89401097 C11.768493,8.98965242 11.6264367,9.0483871 11.484375,9.0483871 Z" id="Shape"></path>
                        <path d="M23.515625,9.0483871 C23.3735633,9.0483871 23.2309711,8.98965242 23.1273656,8.89401097 C23.0285672,8.79291387 22.96875,8.65439371 22.96875,8.51612903 C22.96875,8.37760887 23.0285672,8.23934419 23.1273656,8.1382471 C23.329775,7.94124774 23.701475,7.94124774 23.9038844,8.1382471 C24.0021523,8.23934419 24.0625,8.37760887 24.0625,8.51612903 C24.0625,8.65439371 24.0021523,8.79291387 23.9038844,8.89401097 C23.799743,8.98965242 23.6576867,9.0483871 23.515625,9.0483871 Z" id="Shape"></path>
                        <path d="M17.5,33 C17.1977258,33 16.953125,32.7619369 16.953125,32.4677419 L16.953125,16.5 C16.953125,16.2060605 17.1977258,15.9677419 17.5,15.9677419 C17.8022742,15.9677419 18.046875,16.2060605 18.046875,16.5 L18.046875,32.4677419 C18.046875,32.7619369 17.8022742,33 17.5,33 Z" id="Shape"></path>
                        <path d="M34.453125,33 L0.546875,33 C0.244600781,33 0,32.7619369 0,32.4677419 C0,32.1735469 0.244600781,31.9354839 0.546875,31.9354839 L34.453125,31.9354839 C34.7553992,31.9354839 35,32.1735469 35,32.4677419 C35,32.7619369 34.7553992,33 34.453125,33 Z" id="Shape"></path>
                        <path d="M22.96875,33 C22.6664758,33 22.421875,32.7619369 22.421875,32.4677419 L22.421875,19.1612903 C22.421875,18.8670953 22.6664758,18.6290323 22.96875,18.6290323 C23.2710242,18.6290323 23.515625,18.8670953 23.515625,19.1612903 L23.515625,32.4677419 C23.515625,32.7619369 23.2710242,33 22.96875,33 Z" id="Shape"></path>
                        <path d="M28.4375,33 C28.1352258,33 27.890625,32.7619369 27.890625,32.4677419 L27.890625,25.016129 C27.890625,24.721934 28.1352258,24.483871 28.4375,24.483871 C28.7397742,24.483871 28.984375,24.721934 28.984375,25.016129 L28.984375,32.4677419 C28.984375,32.7619369 28.7397742,33 28.4375,33 Z" id="Shape"></path>
                        <path d="M12.03125,33 C11.7289758,33 11.484375,32.7619369 11.484375,32.4677419 L11.484375,19.1612903 C11.484375,18.8670953 11.7289758,18.6290323 12.03125,18.6290323 C12.3335242,18.6290323 12.578125,18.8670953 12.578125,19.1612903 L12.578125,32.4677419 C12.578125,32.7619369 12.3335242,33 12.03125,33 Z" id="Shape"></path>
                        <path d="M6.5625,33 C6.26022578,33 6.015625,32.7619369 6.015625,32.4677419 L6.015625,25.016129 C6.015625,24.721934 6.26022578,24.483871 6.5625,24.483871 C6.86477422,24.483871 7.109375,24.721934 7.109375,25.016129 L7.109375,32.4677419 C7.109375,32.7619369 6.86477422,33 6.5625,33 Z" id="Shape"></path>
                        <path d="M9.296875,28.2096774 C9.15695156,28.2096774 9.01702812,28.1576971 8.91021797,28.0537418 L6.5625,25.7687739 L4.21478203,28.0537418 C4.00115625,28.2616577 3.65508828,28.2616577 3.44146797,28.0537418 C3.22784766,27.8458258 3.22784219,27.5090076 3.44146797,27.3010969 L6.17584297,24.6398066 C6.38946875,24.4318906 6.73553672,24.4318906 6.94915703,24.6398066 L9.68353203,27.3010969 C9.89715781,27.5090129 9.89715781,27.8458311 9.68353203,28.0537418 C9.57672187,28.1576971 9.43679844,28.2096774 9.296875,28.2096774 Z" id="Shape"></path>
                        <path d="M14.765625,22.3548387 C14.6257016,22.3548387 14.4857781,22.3028584 14.378968,22.1989031 L12.03125,19.9139352 L9.68353203,22.1989031 C9.46990625,22.406819 9.12383828,22.406819 8.91021797,22.1989031 C8.69659766,21.9909871 8.69659219,21.6541689 8.91021797,21.4462582 L11.644593,18.7849679 C11.8582187,18.5770519 12.2042867,18.5770519 12.417907,18.7849679 L15.152282,21.4462582 C15.3659078,21.6541742 15.3659078,21.9909924 15.152282,22.1989031 C15.0454719,22.3028584 14.9055484,22.3548387 14.765625,22.3548387 Z" id="Shape"></path>
                        <path d="M31.171875,28.2096774 C31.0319516,28.2096774 30.8920281,28.1576971 30.785218,28.0537418 L28.4375,25.7687739 L26.089782,28.0537418 C25.8761562,28.2616577 25.5300883,28.2616577 25.316468,28.0537418 C25.1028477,27.8458258 25.1028422,27.5090076 25.316468,27.3010969 L28.050843,24.6398066 C28.2644687,24.4318906 28.6105367,24.4318906 28.824157,24.6398066 L31.558532,27.3010969 C31.7721578,27.5090129 31.7721578,27.8458311 31.558532,28.0537418 C31.4517219,28.1576971 31.3117984,28.2096774 31.171875,28.2096774 Z" id="Shape"></path>
                        <path d="M25.703125,22.3548387 C25.5632016,22.3548387 25.4232781,22.3028584 25.316468,22.1989031 L22.96875,19.9139352 L20.621032,22.1989031 C20.4074062,22.406819 20.0613383,22.406819 19.847718,22.1989031 C19.6340977,21.9909871 19.6340922,21.6541689 19.847718,21.4462582 L22.582093,18.7849679 C22.7957187,18.5770519 23.1417867,18.5770519 23.355407,18.7849679 L26.089782,21.4462582 C26.3034078,21.6541742 26.3034078,21.9909924 26.089782,22.1989031 C25.9829719,22.3028584 25.8430484,22.3548387 25.703125,22.3548387 Z" id="Shape"></path>
                        <path d="M28.4375,23.9516129 C28.2954383,23.9516129 28.1528461,23.8928782 28.0492406,23.7972368 C27.9504422,23.6958789 27.890625,23.5628144 27.890625,23.4193548 C27.890625,23.2753737 27.9504422,23.1423092 28.0492406,23.0414729 C28.25165,22.8444735 28.62335,22.8444735 28.8257594,23.0414729 C28.9293648,23.1423092 28.984375,23.2810902 28.984375,23.4193548 C28.984375,23.5576195 28.9293648,23.6958789 28.8257594,23.7972368 C28.721618,23.8928782 28.5795617,23.9516129 28.4375,23.9516129 Z" id="Shape"></path>
                        <path d="M28.4375,21.8225806 C28.2954383,21.8225806 28.1528461,21.763846 28.0492406,21.6682045 C27.9504422,21.5668466 27.890625,21.4337821 27.890625,21.2903226 C27.890625,21.1463415 27.9504422,21.0132769 28.0492406,20.9124406 C28.2569875,20.7154413 28.6180125,20.7154413 28.8257594,20.9124406 C28.9293648,21.0132769 28.984375,21.1520579 28.984375,21.2903226 C28.984375,21.4285873 28.9293648,21.5668466 28.8257594,21.6682045 C28.721618,21.763846 28.5795617,21.8225806 28.4375,21.8225806 Z" id="Shape"></path>
                        <path d="M28.4375,19.6935484 C28.2954383,19.6935484 28.1528461,19.6348137 28.0492406,19.5391723 C27.9504422,19.4378144 27.890625,19.3047498 27.890625,19.1612903 C27.890625,19.0173092 27.9504422,18.8790498 28.0492406,18.7834084 C28.2569875,18.586409 28.6180125,18.586409 28.8257594,18.7834084 C28.9293648,18.8842447 28.984375,19.0230256 28.984375,19.1612903 C28.984375,19.299555 28.9293648,19.4378144 28.8257594,19.5391723 C28.721618,19.6348137 28.5795617,19.6935484 28.4375,19.6935484 Z" id="Shape"></path>
                        <path d="M6.5625,23.9516129 C6.42043828,23.9516129 6.27784609,23.8928782 6.17424062,23.7972368 C6.07009922,23.6958789 6.015625,23.5576195 6.015625,23.4193548 C6.015625,23.2810902 6.07009922,23.1423092 6.17424062,23.0414729 C6.3819875,22.8444735 6.74835,22.8444735 6.95075937,23.0414729 C7.04902734,23.1423092 7.109375,23.2810902 7.109375,23.4193548 C7.109375,23.5576195 7.04902734,23.6958789 6.95075938,23.7972368 C6.84661797,23.8928782 6.70456172,23.9516129 6.5625,23.9516129 Z" id="Shape"></path>
                        <path d="M6.5625,21.8225806 C6.42043828,21.8225806 6.27784609,21.763846 6.17424062,21.6682045 C6.07009922,21.5668466 6.015625,21.4285873 6.015625,21.2903226 C6.015625,21.1520579 6.07009922,21.0132769 6.17424062,20.9124406 C6.3819875,20.7154413 6.7430125,20.7154413 6.95075937,20.9124406 C7.04902734,21.0132769 7.109375,21.1520579 7.109375,21.2903226 C7.109375,21.4285873 7.04902734,21.5668466 6.95075938,21.6682045 C6.84661797,21.763846 6.70456172,21.8225806 6.5625,21.8225806 Z" id="Shape"></path>
                        <path d="M6.5625,19.6935484 C6.42043828,19.6935484 6.27784609,19.6348137 6.17424062,19.5391723 C6.07009922,19.4378144 6.015625,19.299555 6.015625,19.1612903 C6.015625,19.0230256 6.07009922,18.8842447 6.17424062,18.7834084 C6.3819875,18.586409 6.74835,18.586409 6.95075937,18.7834084 C7.04902734,18.8842447 7.109375,19.0230256 7.109375,19.1612903 C7.109375,19.299555 7.04902734,19.4378144 6.95075938,19.5391723 C6.84661797,19.6348137 6.70456172,19.6935484 6.5625,19.6935484 Z" id="Shape"></path>
                    </g>
                </g>
            </g>
        </g>
    </g>
</svg>