<?xml version="1.0" encoding="UTF-8"?>
<svg width="36px" height="35px" viewBox="0 0 36 35" version="1.1" xmlns="http://www.w3.org/2000/svg" xmlns:xlink="http://www.w3.org/1999/xlink">
    <!-- Generator: Sketch 48.2 (47327) - http://www.bohemiancoding.com/sketch -->
    <title>Recycle-Icon</title>
    <desc>Created with Sketch.</desc>
    <defs></defs>
    <g id="landing" stroke="none" stroke-width="1" fill="none" fill-rule="evenodd" transform="translate(-971.000000, -668.000000)">
        <g id="Main-Buttons" transform="translate(275.000000, 502.000000)" fill="#1E8CEB" fill-rule="nonzero">
            <g id="Review" transform="translate(463.000000, 0.000000)">
                <g id="Visual-2" transform="translate(220.000000, 150.000000)">
                    <g id="Recycle-Icon" transform="translate(13.000000, 16.000000)">
                        <path d="M26.8146327,15.859375 C26.7629618,15.859375 26.7110291,15.8518992 26.6604273,15.8369422 L17.8457945,13.233943 C17.6356582,13.171993 17.4827782,12.9893422 17.4580091,12.7709148 C17.43324,12.5524875 17.5416382,12.3404641 17.7326018,12.232582 L21.3275945,10.2063664 L18.0002673,4.39635547 L12.9529473,13.2168531 C12.8051291,13.4753391 12.4767382,13.5682641 12.2157327,13.4229977 L9.25941273,11.7823727 C9.13104,11.7108086 9.03649091,11.5906437 8.99760545,11.4485875 C8.95872,11.3070617 8.97869455,11.1548555 9.05273455,11.0277508 L14.2127127,2.17414531 C15.0055909,0.812836719 16.4214327,0 18,0 C19.5785673,0 20.9944091,0.812836719 21.7875545,2.17468125 L25.1985109,8.02635313 L28.6416927,6.08558672 C28.8305236,5.97930703 29.0646327,5.99533047 29.2380164,6.12617578 C29.4108655,6.25702109 29.4899673,6.47865313 29.4393655,6.69014063 L27.3449073,15.4401406 C27.31002,15.5859375 27.2170636,15.7109094 27.0876273,15.7856781 C27.0039927,15.8342734 26.9097109,15.859375 26.8146327,15.859375 Z M19.3939964,12.5508906 L26.4180545,14.6251711 L28.0871782,7.65305078 L25.2656236,9.24347266 C25.0051473,9.38980547 24.6770236,9.30008516 24.52734,9.04266562 L20.8455218,2.72636875 C20.25,1.70417734 19.1862545,1.09375 18,1.09375 C16.8137455,1.09375 15.75,1.70417734 15.15474,2.72583281 L10.2762764,11.0966516 L12.2740582,12.2053531 L17.5269873,3.02543828 C17.7211473,2.68631016 18.2783182,2.68524375 18.4730127,3.02543828 L22.5476727,10.1401562 C22.6201145,10.2667305 22.6392927,10.4167984 22.6006745,10.5577883 C22.5617891,10.6982477 22.4688382,10.8178766 22.3420636,10.8894406 L19.3939964,12.5508906 Z" id="Shape"></path>
                        <path d="M14.7272727,31.171875 L4.93093091,31.171875 C3.33931091,31.171875 1.91761636,30.3488937 1.12792909,28.9699539 C0.344105455,27.6011641 0.349963636,25.9706836 1.14337636,24.6072367 L4.27255091,19.2410258 L0.823778182,17.298657 C0.632547273,17.190775 0.524149091,16.978757 0.548918182,16.7603242 C0.573687273,16.5418914 0.7263,16.3592461 0.936703636,16.2972961 L9.75133636,13.6942969 C9.89542364,13.6521055 10.0498964,13.6707977 10.1785364,13.7455664 C10.3079727,13.8203352 10.4009236,13.9453016 10.4358164,14.0911039 L12.5302745,22.8411039 C12.5808764,23.0525914 12.5017745,23.2742234 12.3289255,23.4050687 C12.1552745,23.5359141 11.9214327,23.551932 11.7326018,23.4456578 L8.22736364,21.4691094 L5.80238182,25.703125 L14.7272727,25.703125 C15.0285,25.703125 15.2727273,25.9477258 15.2727273,26.25 L15.2727273,30.625 C15.2727273,30.9272742 15.0285,31.171875 14.7272727,31.171875 Z M2.48570727,16.9798289 L5.29075091,18.5595703 C5.41832727,18.6316703 5.51180727,18.7518297 5.55016364,18.8933555 C5.58824727,19.0348812 5.56827273,19.1860211 5.4945,19.3125898 L2.08540909,25.1589187 C1.49148,26.1795023 1.48695273,27.400357 2.07395455,28.4252172 C2.66681455,29.4602219 3.73482,30.078125 4.93093091,30.078125 L14.1818182,30.078125 L14.1818182,26.796875 L4.86008727,26.796875 C4.66539818,26.796875 4.48562182,26.6927336 4.38814364,26.5239734 C4.29039818,26.3552133 4.29013091,26.1469305 4.38708,25.9776344 L7.55060727,20.4544102 C7.69948909,20.1943219 8.02974545,20.1029992 8.29101818,20.249868 L11.1778255,21.8776742 L9.50896909,14.9060844 L2.48570727,16.9798289 Z" id="Shape"></path>
                        <path d="M23.9291564,35 C23.7888,35 23.6505709,34.9455258 23.5464327,34.8429867 L17.0009782,28.3787547 C16.8944455,28.2735469 16.8355855,28.1288164 16.8382473,27.9792789 C16.8409091,27.8292109 16.9048309,27.6871492 17.0150945,27.5856766 L23.6313927,21.5043609 C23.7911945,21.3574977 24.0234382,21.3195773 24.2207945,21.4076953 C24.4192145,21.4958133 24.5465236,21.6928797 24.5454545,21.9102461 L24.5262764,25.703125 L30.1976182,25.703125 L26.0798073,18.5163125 C26.0070982,18.3892078 25.9881873,18.238068 26.02734,18.0970781 C26.06676,17.9555523 26.1610418,17.8364594 26.28888,17.7654258 L29.28888,16.1029039 C29.5490891,15.9587094 29.8745509,16.0489656 30.0239673,16.3058437 L34.8566182,24.6072367 C35.6500309,25.9706836 35.6558891,27.6011641 34.8720655,28.9699539 C34.0823891,30.3488937 32.6606891,31.171875 31.0690691,31.171875 L24.4932545,31.171875 L24.4746109,34.4563297 C24.47328,34.6763594 24.3409091,34.8739617 24.1382291,34.9583445 C24.0708436,34.9861148 23.9997327,35 23.9291564,35 Z M18.1755164,28.0033086 L23.3911582,33.1542969 L23.4055418,30.6217953 C23.40714,30.3211234 23.6508382,30.078125 23.9509964,30.078125 L31.0690691,30.078125 C32.26518,30.078125 33.3331855,29.4602219 33.9260455,28.4252172 C34.5130473,27.4003625 34.50852,26.1795023 33.9143291,25.1583883 L29.3504073,17.3184211 L27.3020236,18.4538266 L31.6129255,25.9776289 C31.7098691,26.146925 31.7096073,26.3552078 31.6118618,26.523968 C31.5143836,26.6927336 31.3346073,26.796875 31.1399127,26.796875 L23.97816,26.796875 C23.8330091,26.796875 23.6939782,26.7386602 23.5914436,26.6355906 C23.4891709,26.5325156 23.4319091,26.3925922 23.4327055,26.2473312 L23.4481527,23.1567383 L18.1755164,28.0033086 Z" id="Shape"></path>
                        <path d="M18,18.59375 C17.8580455,18.59375 17.7163527,18.5334023 17.6127491,18.4351344 C17.5144691,18.330993 17.4545455,18.1889367 17.4545455,18.046875 C17.4545455,17.9048133 17.5144691,17.7622211 17.6127491,17.6586156 C17.8143655,17.4562063 18.1797764,17.4562063 18.3872509,17.6586156 C18.4852636,17.7622211 18.5454545,17.9048133 18.5454545,18.046875 C18.5454545,18.1889367 18.4852636,18.330993 18.3872509,18.4351344 C18.2836473,18.5334023 18.1416927,18.59375 18,18.59375 Z" id="Shape"></path>
                        <path d="M20.1818182,18.59375 C20.0398636,18.59375 19.8981709,18.5334023 19.7945673,18.4351344 C19.6962873,18.330993 19.6363636,18.1889367 19.6363636,18.046875 C19.6363636,17.9048133 19.6962873,17.7622211 19.7945673,17.6586156 C19.9961836,17.4562063 20.3615945,17.4562063 20.5690691,17.6586156 C20.6670818,17.7622211 20.7272727,17.9048133 20.7272727,18.046875 C20.7272727,18.1889367 20.6670818,18.330993 20.5690691,18.4351344 C20.4654655,18.5334023 20.3235109,18.59375 20.1818182,18.59375 Z" id="Shape"></path>
                        <path d="M15.8181818,18.59375 C15.6762273,18.59375 15.5345345,18.5334023 15.4309309,18.4351344 C15.3326509,18.330993 15.2727273,18.1889367 15.2727273,18.046875 C15.2727273,17.9048133 15.3326509,17.7622211 15.4309309,17.6586156 C15.6325473,17.4562063 15.9979582,17.4562063 16.2054327,17.6586156 C16.3034455,17.7622211 16.3636364,17.9048133 16.3636364,18.046875 C16.3636364,18.1889367 16.3034455,18.330993 16.2054327,18.4351344 C16.1018291,18.5334023 15.9598745,18.59375 15.8181818,18.59375 Z" id="Shape"></path>
                    </g>
                </g>
            </g>
        </g>
    </g>
</svg>