<?xml version="1.0" encoding="UTF-8"?>
<svg width="29px" height="35px" viewBox="0 0 29 35" version="1.1" xmlns="http://www.w3.org/2000/svg" xmlns:xlink="http://www.w3.org/1999/xlink">
    <!-- Generator: Sketch 48.2 (47327) - http://www.bohemiancoding.com/sketch -->
    <title>Import-Icon</title>
    <desc>Created with Sketch.</desc>
    <defs></defs>
    <g id="landing" stroke="none" stroke-width="1" fill="none" fill-rule="evenodd" transform="translate(-512.000000, -668.000000)">
        <g id="Main-Buttons" transform="translate(275.000000, 502.000000)" fill="#1E8CEB" fill-rule="nonzero">
            <g id="Generate">
                <g id="Visual-2" transform="translate(219.000000, 150.000000)">
                    <g id="Import-Icon" transform="translate(18.000000, 16.000000)">
                        <path d="M27.3269231,35 L1.67307692,35 C0.750486538,35 0,34.2640703 0,33.359375 L0,1.640625 C0,0.735929687 0.750486538,0 1.67307692,0 L27.3269231,0 C28.2495135,0 29,0.735929687 29,1.640625 L29,33.359375 C29,34.2640703 28.2495135,35 27.3269231,35 Z M1.67307692,1.09375 C1.36563788,1.09375 1.11538462,1.33914922 1.11538462,1.640625 L1.11538462,33.359375 C1.11538462,33.6608508 1.36563788,33.90625 1.67307692,33.90625 L27.3269231,33.90625 C27.6343621,33.90625 27.8846154,33.6608508 27.8846154,33.359375 L27.8846154,1.640625 C27.8846154,1.33914922 27.6343621,1.09375 27.3269231,1.09375 L1.67307692,1.09375 Z" id="Shape"></path>
                        <path d="M5.57692308,8.203125 C4.65433269,8.203125 3.90384615,7.46719531 3.90384615,6.5625 C3.90384615,5.65780469 4.65433269,4.921875 5.57692308,4.921875 C6.49951346,4.921875 7.25,5.65780469 7.25,6.5625 C7.25,7.46719531 6.49951346,8.203125 5.57692308,8.203125 Z M5.57692308,6.015625 C5.26948404,6.015625 5.01923077,6.26102422 5.01923077,6.5625 C5.01923077,6.86397578 5.26948404,7.109375 5.57692308,7.109375 C5.88436212,7.109375 6.13461538,6.86397578 6.13461538,6.5625 C6.13461538,6.26102422 5.88436212,6.015625 5.57692308,6.015625 Z" id="Shape"></path>
                        <path d="M5.57692308,13.671875 C4.65433269,13.671875 3.90384615,12.9359453 3.90384615,12.03125 C3.90384615,11.1265547 4.65433269,10.390625 5.57692308,10.390625 C6.49951346,10.390625 7.25,11.1265547 7.25,12.03125 C7.25,12.9359453 6.49951346,13.671875 5.57692308,13.671875 Z M5.57692308,11.484375 C5.26948404,11.484375 5.01923077,11.7297742 5.01923077,12.03125 C5.01923077,12.3327258 5.26948404,12.578125 5.57692308,12.578125 C5.88436212,12.578125 6.13461538,12.3327258 6.13461538,12.03125 C6.13461538,11.7297742 5.88436212,11.484375 5.57692308,11.484375 Z" id="Shape"></path>
                        <path d="M5.57692308,19.140625 C4.65433269,19.140625 3.90384615,18.4046953 3.90384615,17.5 C3.90384615,16.5953047 4.65433269,15.859375 5.57692308,15.859375 C6.49951346,15.859375 7.25,16.5953047 7.25,17.5 C7.25,18.4046953 6.49951346,19.140625 5.57692308,19.140625 Z M5.57692308,16.953125 C5.26948404,16.953125 5.01923077,17.1985242 5.01923077,17.5 C5.01923077,17.8014758 5.26948404,18.046875 5.57692308,18.046875 C5.88436212,18.046875 6.13461538,17.8014758 6.13461538,17.5 C6.13461538,17.1985242 5.88436212,16.953125 5.57692308,16.953125 Z" id="Shape"></path>
                        <path d="M5.57692308,24.609375 C4.65433269,24.609375 3.90384615,23.8734453 3.90384615,22.96875 C3.90384615,22.0640547 4.65433269,21.328125 5.57692308,21.328125 C6.49951346,21.328125 7.25,22.0640547 7.25,22.96875 C7.25,23.8734453 6.49951346,24.609375 5.57692308,24.609375 Z M5.57692308,22.421875 C5.26948404,22.421875 5.01923077,22.6672742 5.01923077,22.96875 C5.01923077,23.2702258 5.26948404,23.515625 5.57692308,23.515625 C5.88436212,23.515625 6.13461538,23.2702258 6.13461538,22.96875 C6.13461538,22.6672742 5.88436212,22.421875 5.57692308,22.421875 Z" id="Shape"></path>
                        <path d="M5.57692308,30.078125 C4.65433269,30.078125 3.90384615,29.3421953 3.90384615,28.4375 C3.90384615,27.5328047 4.65433269,26.796875 5.57692308,26.796875 C6.49951346,26.796875 7.25,27.5328047 7.25,28.4375 C7.25,29.3421953 6.49951346,30.078125 5.57692308,30.078125 Z M5.57692308,27.890625 C5.26948404,27.890625 5.01923077,28.1360242 5.01923077,28.4375 C5.01923077,28.7389758 5.26948404,28.984375 5.57692308,28.984375 C5.88436212,28.984375 6.13461538,28.7389758 6.13461538,28.4375 C6.13461538,28.1360242 5.88436212,27.890625 5.57692308,27.890625 Z" id="Shape"></path>
                        <path d="M24.5384615,7.109375 L8.92307692,7.109375 C8.61509135,7.109375 8.36538462,6.86451172 8.36538462,6.5625 C8.36538462,6.26048828 8.61509135,6.015625 8.92307692,6.015625 L24.5384615,6.015625 C24.8464471,6.015625 25.0961538,6.26048828 25.0961538,6.5625 C25.0961538,6.86451172 24.8464471,7.109375 24.5384615,7.109375 Z" id="Shape"></path>
                        <path d="M24.5384615,12.578125 L8.92307692,12.578125 C8.61509135,12.578125 8.36538462,12.3332617 8.36538462,12.03125 C8.36538462,11.7292383 8.61509135,11.484375 8.92307692,11.484375 L24.5384615,11.484375 C24.8464471,11.484375 25.0961538,11.7292383 25.0961538,12.03125 C25.0961538,12.3332617 24.8464471,12.578125 24.5384615,12.578125 Z" id="Shape"></path>
                        <path d="M24.5384615,18.046875 L8.92307692,18.046875 C8.61509135,18.046875 8.36538462,17.8020117 8.36538462,17.5 C8.36538462,17.1979883 8.61509135,16.953125 8.92307692,16.953125 L24.5384615,16.953125 C24.8464471,16.953125 25.0961538,17.1979883 25.0961538,17.5 C25.0961538,17.8020117 24.8464471,18.046875 24.5384615,18.046875 Z" id="Shape"></path>
                        <path d="M24.5384615,23.515625 L8.92307692,23.515625 C8.61509135,23.515625 8.36538462,23.2707617 8.36538462,22.96875 C8.36538462,22.6667383 8.61509135,22.421875 8.92307692,22.421875 L24.5384615,22.421875 C24.8464471,22.421875 25.0961538,22.6667383 25.0961538,22.96875 C25.0961538,23.2707617 24.8464471,23.515625 24.5384615,23.515625 Z" id="Shape"></path>
                        <path d="M17.8461538,28.984375 L8.92307692,28.984375 C8.61509135,28.984375 8.36538462,28.7395117 8.36538462,28.4375 C8.36538462,28.1354883 8.61509135,27.890625 8.92307692,27.890625 L17.8461538,27.890625 C18.1541394,27.890625 18.4038462,28.1354883 18.4038462,28.4375 C18.4038462,28.7395117 18.1541394,28.984375 17.8461538,28.984375 Z" id="Shape"></path>
                        <path d="M20.0769231,28.984375 C19.926335,28.984375 19.7869119,28.9240273 19.6809838,28.8257594 C19.5804988,28.7218859 19.5192308,28.5851672 19.5192308,28.4375 C19.5192308,28.2898328 19.5804988,28.1531141 19.6809838,28.0492406 C19.8871237,27.8468312 20.2664492,27.8468312 20.4728623,28.0492406 C20.573074,28.1531141 20.6346154,28.2898328 20.6346154,28.4375 C20.6346154,28.5851672 20.573074,28.7218859 20.4728623,28.8257594 C20.3669342,28.9240273 20.2275112,28.984375 20.0769231,28.984375 Z" id="Shape"></path>
                        <path d="M22.3076923,28.984375 C22.1571042,28.984375 22.0176812,28.9240273 21.9117531,28.8257594 C21.8112681,28.7218859 21.75,28.5851672 21.75,28.4375 C21.75,28.2898328 21.8112681,28.1531141 21.9117531,28.0492406 C22.1178929,27.8468312 22.4972185,27.8468312 22.7036315,28.0492406 C22.8038433,28.1531141 22.8653846,28.2898328 22.8653846,28.4375 C22.8653846,28.5851672 22.8038433,28.7218859 22.7036315,28.8257594 C22.5977035,28.9240273 22.4582804,28.984375 22.3076923,28.984375 Z" id="Shape"></path>
                        <path d="M24.5384615,28.984375 C24.3878735,28.984375 24.2484504,28.9240273 24.1425223,28.8257594 C24.0420373,28.7218859 23.9807692,28.5851672 23.9807692,28.4375 C23.9807692,28.2898328 24.0420373,28.1531141 24.1425223,28.0492406 C24.3486621,27.8468312 24.7279877,27.8468312 24.9344008,28.0492406 C25.0346125,28.1531141 25.0961538,28.2951758 25.0961538,28.4375 C25.0961538,28.5795617 25.0346125,28.7218859 24.9344008,28.8257594 C24.8284727,28.9240273 24.6890496,28.984375 24.5384615,28.984375 Z" id="Shape"></path>
                    </g>
                </g>
            </g>
        </g>
    </g>
</svg>